# xmcd
#
# Track frame offsets:
# 150
# 19515
# 33923
# 52594
# 68493
# 87117
# 101352
# 118247
# 142962
# 163434
# 181065
# 197607
# 209637
# 223050
# 241827
#
# Disc length: 3511 seconds
#
#
# Revision: 5
# Processed by: cddbd v1.5.2PL0 Copyright (c) Steve Scherf et al.
# Submitted via: FreeRIP 2.944 
#
DISCID=c50db50f
DTITLE=Rick and Renner - Só Nós Dois
DYEAR=2004
DGENRE=Sertanejo (BR)
TTITLE0=Eu Mereço
TTITLE1=Saudade Desse Amor
TTITLE2=Agora É Assim
TTITLE3=Meu Bem Não Me Quer
TTITLE4=Bebedeira
TTITLE5=Mulher Difícil
TTITLE6=Amor Aventureiro
TTITLE7=Só Nós Dois
TTITLE8=Gostando Só
TTITLE9=Tô Abrindo As Portas do Meu Coração
TTITLE10=Brega Demais
TTITLE11=Pelejando
TTITLE12=Pinga de Goela Abaixo
TTITLE13=Doidinho Por Você
TTITLE14=Mãe
EXTD=YEAR: 2004
EXTT0=
EXTT1=
EXTT2=
EXTT3=
EXTT4=
EXTT5=
EXTT6=
EXTT7=
EXTT8=
EXTT9=
EXTT10=
EXTT11=
EXTT12=
EXTT13=
EXTT14=
PLAYORDER=
